<?xml version="1.0"?><svg height="48px" version="1.1" viewBox="0 0 48 48" width="48px" xmlns="http://www.w3.org/2000/svg" xmlns:xlink="http://www.w3.org/1999/xlink"><title/><desc/><g fill="none" fill-rule="evenodd" id="Page-1" stroke="none" stroke-width="1"><g id="Artboard-Copy" transform="translate(-107.000000, -669.000000)"><path d="M121.8335,680 C120.8215,680 119.9995,680.826 119.9995,681.846 L119.9995,702.152 C119.9995,703.174 120.8215,704 121.8335,704 L125.1665,704 C126.1805,704 127.0005,703.174 127.0005,702.152 L127.0005,681.846 C127.0005,680.826 126.1805,680 125.1665,680 L121.8335,680 Z M136.8335,680 C135.8215,680 135.0005,680.826 135.0005,681.846 L135.0005,702.152 C135.0005,703.174 135.8215,704 136.8335,704 L140.1675,704 C141.1795,704 142.0005,703.174 142.0005,702.152 L142.0005,681.846 C142.0005,680.826 141.1795,680 140.1675,680 L136.8335,680 Z" fill="#000000" id="pause"/><g id="slices" transform="translate(47.000000, 9.000000)"/></g></g></svg>