<?xml version="1.0"?><svg viewBox="0 0 32 32" xmlns="http://www.w3.org/2000/svg"><defs><style>.cls-1{fill:#231f20;}</style></defs><title/><g id="Sound"><path class="cls-1" d="M20,5V27a1.0222,1.0222,0,0,1-.6016.9072A1.1006,1.1006,0,0,1,18.9551,28a1,1,0,0,1-.6465-.2373L11.5024,22H7.4551A2.4647,2.4647,0,0,1,5,19.5v-7A2.4647,2.4647,0,0,1,7.4551,10h4.0473L18.32,4.2373A1.0255,1.0255,0,0,1,20,5Zm1.6328,7.6055a1,1,0,0,0-.4473,1.3418,5.0993,5.0993,0,0,1,0,4.1054,1,1,0,0,0,1.7891.8946,7.1051,7.1051,0,0,0,0-5.8946A1.0014,1.0014,0,0,0,21.6328,12.6055Zm4.1279-2.5528a1,1,0,1,0-1.789.8946,12.3562,12.3562,0,0,1,0,10.1054,1,1,0,0,0,1.789.8946A14.334,14.334,0,0,0,25.7607,10.0527Z"/></g></svg>